# xmcd CD database file
#
# Track frame offsets:
#	150
#	31509
#	56719
#	91698
#	113372
#	147497
#	175919
#	206442
#	222123
#	244637
#
# Disc length: 3640 seconds
#
# Revision: 2
# Processed by: cddbd v1.5.2PL0 Copyright (c) Steve Scherf et al.
# Submitted via: jetAudio 7
#
DISCID=7b0e360a
DTITLE=The Arcanum Trio - A
DYEAR=1996
DGENRE=Jazz
TTITLE0=Tell Me A Bedtime Story
TTITLE1=Charles
TTITLE2=No One Knows
TTITLE3=La Nenna Y La Crobata
TTITLE4=Infant Eyes
TTITLE5=D.D.N.L.I.
TTITLE6=Saga Of Harisson Crabfeathers
TTITLE7=Misterioso
TTITLE8=Elm
TTITLE9=Miche
EXTD=YEAR: 1996
EXTT0=
EXTT1=
EXTT2=
EXTT3=
EXTT4=
EXTT5=
EXTT6=
EXTT7=
EXTT8=
EXTT9=
PLAYORDER=
